<?xml version="1.0" encoding="iso-8859-1"?>
<!-- Generator: Adobe Illustrator 19.0.0, SVG Export Plug-In . SVG Version: 6.00 Build 0)  -->
<svg version="1.1" id="Layer_1" xmlns="http://www.w3.org/2000/svg" xmlns:xlink="http://www.w3.org/1999/xlink" x="0px" y="0px"
	 viewBox="0 0 512 512" style="enable-background:new 0 0 512 512;" xml:space="preserve">
<circle style="fill:#A2DFE9;" cx="256" cy="256" r="256"/>
<g>
	<path style="fill:#FFFFFF;" d="M423.32,280.376H239.84c-9.176,0-16.68-7.504-16.68-16.68V146.944c0-9.176,7.504-16.68,16.68-16.68
		h183.48c9.176,0,16.68,7.504,16.68,16.68v116.76C440,272.872,432.496,280.376,423.32,280.376z"/>
	<polygon style="fill:#FFFFFF;" points="389.96,330.416 389.96,263.704 306.56,263.704 	"/>
</g>
<g>
	<path style="fill:#DB2B42;" d="M88.68,363.776h183.48c9.176,0,16.68-7.504,16.68-16.68V230.344c0-9.176-7.504-16.68-16.68-16.68
		H88.68c-9.176,0-16.68,7.504-16.68,16.68v116.76C72,356.272,79.504,363.776,88.68,363.776z"/>
	<polygon style="fill:#DB2B42;" points="122.04,413.816 122.04,347.096 205.44,347.096 	"/>
</g>
<g>
	<rect x="172.08" y="263.704" style="fill:#FFFFFF;" width="16.68" height="16.68"/>
	<rect x="138.72" y="263.704" style="fill:#FFFFFF;" width="16.68" height="16.68"/>
	<rect x="105.36" y="263.704" style="fill:#FFFFFF;" width="16.68" height="16.68"/>
	<rect x="205.44" y="263.704" style="fill:#FFFFFF;" width="16.68" height="16.68"/>
	<rect x="238.8" y="263.704" style="fill:#FFFFFF;" width="16.68" height="16.68"/>
	<rect x="172.08" y="297.08" style="fill:#FFFFFF;" width="16.68" height="16.68"/>
	<rect x="138.72" y="297.08" style="fill:#FFFFFF;" width="16.68" height="16.68"/>
	<rect x="105.36" y="297.08" style="fill:#FFFFFF;" width="16.68" height="16.68"/>
</g>
<rect x="323.28" y="180.304" width="16.68" height="16.68"/>
<rect x="289.84" y="180.304" width="16.68" height="16.68"/>
<rect x="256.48" y="180.304" width="16.68" height="16.68"/>
<rect x="356.6" y="180.304" width="16.68" height="16.68"/>
<rect x="389.96" y="180.304" width="16.68" height="16.68"/>
<rect x="323.28" y="213.664" width="16.68" height="16.68"/>
<rect x="356.6" y="213.664" width="16.68" height="16.68"/>
<rect x="389.96" y="213.664" width="16.68" height="16.68"/>
<g>
</g>
<g>
</g>
<g>
</g>
<g>
</g>
<g>
</g>
<g>
</g>
<g>
</g>
<g>
</g>
<g>
</g>
<g>
</g>
<g>
</g>
<g>
</g>
<g>
</g>
<g>
</g>
<g>
</g>
</svg>
